<svg width="11" height="99" viewBox="0 0 11 99" fill="none" xmlns="http://www.w3.org/2000/svg">
<path d="M9.8 50.82V51.842H0V50.82H9.8ZM0 44.688V43.652H9.8V44.688H0ZM4.522 50.918L4.522 44.576H5.432L5.432 50.918H4.522ZM0 52.868L9.8 57.348V58.37L0 62.85V61.758L9.198 57.642V58.062L0 53.946V52.868ZM2.618 54.632L3.458 54.94L3.458 60.638L2.618 60.946L2.618 54.632ZM0 63.888H9.8L9.8 67.962C9.8 68.998 9.58533 69.81 9.156 70.398C8.736 70.9953 8.11533 71.294 7.294 71.294C6.482 71.294 5.866 71.0093 5.446 70.44C5.03533 69.8707 4.83 69.124 4.83 68.2L5.18 68.438C5.18 69.53 4.96533 70.3607 4.536 70.93C4.10667 71.4993 3.47667 71.784 2.646 71.784C1.806 71.784 1.15267 71.4853 0.686 70.888C0.228667 70.3 0 69.4133 0 68.228L0 63.888ZM0.826 64.91L0.826 68.228C0.826 69.0587 0.98 69.6887 1.288 70.118C1.596 70.5473 2.072 70.762 2.716 70.762C3.35067 70.762 3.81733 70.5473 4.116 70.118C4.41467 69.6887 4.564 69.0587 4.564 68.228V64.91H0.826ZM5.362 64.91V67.906C5.362 68.662 5.51133 69.2407 5.81 69.642C6.118 70.0527 6.57067 70.258 7.168 70.258C7.76533 70.258 8.21333 70.0527 8.512 69.642C8.82 69.2407 8.974 68.662 8.974 67.906L8.974 64.91H5.362ZM5.418 74.4583L5.418 79.6383H4.536L4.536 74.4583H5.418ZM0.896 74.5703L0.896 80.4643H0L0 73.5343H9.8L9.8 80.2543H8.904L8.904 74.5703H0.896ZM0 81.9229H9.8V85.5909C9.8 86.4215 9.66467 87.1355 9.394 87.7329C9.13267 88.3302 8.75 88.7875 8.246 89.1049C7.75133 89.4315 7.14933 89.5949 6.44 89.5949C5.74933 89.5949 5.152 89.4315 4.648 89.1049C4.15333 88.7875 3.77067 88.3302 3.5 87.7329C3.22933 87.1355 3.094 86.4215 3.094 85.5909L3.094 82.4969L3.584 82.9589H0V81.9229ZM3.5 82.9589L4.004 82.4969L4.004 85.5629C4.004 86.5429 4.214 87.2849 4.634 87.7889C5.06333 88.3022 5.66533 88.5589 6.44 88.5589C7.224 88.5589 7.83067 88.3022 8.26 87.7889C8.68933 87.2849 8.904 86.5429 8.904 85.5629V82.4969L9.394 82.9589H3.5ZM9.8 89.5612V90.7512L5.922 93.5372L9.8 96.3092V97.5272L5.096 94.1812L0 97.7932V96.5752L4.214 93.5372L0 90.4992V89.3092L5.054 92.9072L9.8 89.5612Z" fill="black"/>
<path d="M6.35355 0.646447C6.15829 0.451184 5.84171 0.451184 5.64645 0.646447L2.46447 3.82843C2.2692 4.02369 2.2692 4.34027 2.46447 4.53553C2.65973 4.7308 2.97631 4.7308 3.17157 4.53553L6 1.70711L8.82843 4.53553C9.02369 4.7308 9.34027 4.7308 9.53553 4.53553C9.7308 4.34027 9.7308 4.02369 9.53553 3.82843L6.35355 0.646447ZM6.5 36L6.5 1H5.5L5.5 36H6.5Z" fill="black"/>
</svg>
